<?xml version="1.0" encoding="UTF-8" standalone="no"?>
<svg
   xmlns:dc="http://purl.org/dc/elements/1.1/"
   xmlns:cc="http://creativecommons.org/ns#"
   xmlns:rdf="http://www.w3.org/1999/02/22-rdf-syntax-ns#"
   xmlns:svg="http://www.w3.org/2000/svg"
   xmlns="http://www.w3.org/2000/svg"
   id="svg8"
   version="1.1"
   viewBox="0 0 299.99998 49.999997"
   height="50mm"
   width="300mm">
  <defs
     id="defs2" />
  <metadata
     id="metadata5">
    <rdf:RDF>
      <cc:Work
         rdf:about="">
        <dc:format>image/svg+xml</dc:format>
        <dc:type
           rdf:resource="http://purl.org/dc/dcmitype/StillImage" />
        <dc:title></dc:title>
      </cc:Work>
    </rdf:RDF>
  </metadata>
  <g
     transform="translate(0,-247.00001)"
     id="layer1">
    <g
       id="text12"
       style="font-style:normal;font-variant:normal;font-weight:normal;font-stretch:normal;font-size:25.39999962px;line-height:1.25;font-family:'CC CheonRiMa';-inkscape-font-specification:'CC CheonRiMa';letter-spacing:0px;word-spacing:0px;fill:#000000;fill-opacity:1;stroke:none;stroke-width:0.26458332"
       aria-label="我谔谔，，，">
      <path
         id="path14"
         style="font-style:normal;font-variant:normal;font-weight:normal;font-stretch:normal;font-size:50.79999924px;font-family:FNMDP;-inkscape-font-specification:FNMDP;stroke-width:0.26458332"
         d="m 25.123606,256.99122 q 0.644922,0 1.736328,0.89297 0.992187,0.69453 0.992187,1.14102 0,0.49609 -0.79375,0.64492 -0.992187,0.24805 -1.934765,0.64492 -3.026172,0.99219 -5.010547,1.43867 -2.182812,0.39688 -3.274219,0.39688 -1.389062,0 -1.389062,-0.19844 0,-0.24805 0.446484,-0.34726 3.026172,-0.69454 6.052344,-2.33165 1.488281,-0.74414 2.629297,-1.88515 0.347265,-0.39688 0.545703,-0.39688 z m 1.240234,0 q 0,0 0,0 z m 0.694531,11.1125 q 0.744141,0 1.736329,0.44649 0.74414,0.49609 0.74414,1.04179 0,0.39688 -0.843359,0.44649 -4.960938,0.49609 -12.203906,2.67891 -1.537891,0.5457 -1.934766,0.5457 -0.694531,0 -2.182812,-0.64492 -1.091407,-0.64493 -1.091407,-1.14102 0,-0.29766 0.744141,-0.39687 3.869531,-0.54571 12.551172,-2.48047 2.133203,-0.4961 2.480468,-0.4961 z m -15.775781,4.36563 q 0,0 0,0 z m 9.773047,-10.31875 q 0.79375,0 2.083594,0.5457 0.694531,0.19844 0.694531,1.0418 0,0.19844 -0.09922,0.79375 -0.248046,0.74414 -0.248046,2.48047 0,0.99218 0.09922,1.5875 0.09922,0.64492 0.09922,1.28984 0,2.97656 -0.545703,4.11758 -0.942578,1.43867 -1.537891,1.43867 -0.396875,0 -0.694531,-0.5457 -0.843359,-1.43867 -2.331641,-3.07578 -0.496093,-0.39688 -0.496093,-0.69453 0,-0.24805 0.148828,-0.24805 0.198437,0 0.545703,0.0992 1.5875,0.49609 2.033984,0.49609 0.347266,0 0.446485,-0.49609 0.198437,-0.69453 0.198437,-3.96875 0,-2.18282 -0.545703,-3.57188 -0.297656,-0.49609 -0.297656,-0.74414 0,-0.5457 0.446484,-0.5457 z m 0.942578,0 z m 0,0 z m 3.373438,13.09687 q 0.396875,0 0.396875,0.54571 0,0.24804 -0.496094,0.59531 -2.033984,1.5875 -6.250781,4.36562 -2.282031,1.53789 -5.407422,3.91914 -0.396875,0.44649 -0.694531,0.44649 -1.091406,0 -2.728516,-1.33945 -1.2898435,-1.19063 -1.2898435,-1.88516 0,-0.19844 0.396875,-0.24805 1.0914065,-0.0992 2.1332035,-0.5457 4.117578,-1.43867 12.055078,-5.10977 1.5875,-0.74414 1.885156,-0.74414 z M 8.9013405,283.78029 Z M 30.779075,251.43497 q 0.694531,0 2.33164,0.79375 0.892969,0.39688 0.892969,1.09141 0,0.29766 -0.148828,0.99219 0,1.48828 0,2.18281 0,2.18281 0.545703,5.01055 0.74414,3.77031 2.083594,6.35 1.289843,2.6789 3.224609,4.41523 1.736328,1.63711 2.678906,1.63711 0.396875,0 0.694531,-1.38906 0,0 0.694532,-2.92696 0.148828,-0.69453 0.248046,-0.69453 0.248047,0 0.248047,0.59532 0.347266,5.06015 0.79375,6.30039 0.297657,0.74414 0.347266,0.99218 0,1.0418 -1.141016,1.0418 -2.33164,0 -5.208984,-2.6293 -2.778125,-2.28203 -4.564062,-6.39961 -1.785938,-4.01835 -3.274219,-13.09687 -0.297656,-1.68672 -0.892969,-2.77813 -0.347265,-0.49609 -0.347265,-0.79375 0,-0.69453 0.79375,-0.69453 z m 0.74414,0 z m 11.658203,19.05 q 0.744141,0 1.835547,0.64493 0.942578,0.5457 0.942578,1.19062 0,0.0992 -0.09922,0.19844 -0.545703,0.49609 -0.79375,0.74414 -0.942578,1.33945 -2.133203,2.23242 -1.438672,1.14102 -3.274218,1.63711 -0.892969,0.29766 -1.190625,0.29766 -0.148829,0 -0.148829,-0.19844 1.537891,-0.94258 2.629297,-1.98438 0.84336,-0.79375 1.537891,-1.98437 0.446484,-0.74414 0.446484,-1.38906 l -0.198437,-0.89297 q 0,-0.4961 0.446484,-0.4961 z m 1.041797,0 z m -6.548437,-13.29531 q 0.198437,0 0.694531,0.14883 0.992187,0.44648 1.934765,1.0418 1.240235,0.89296 1.63711,1.63711 0.297656,0.64492 0.297656,1.43867 0,0.59531 -0.297656,1.33945 -0.347266,0.5457 -0.892969,0.5457 -0.148828,0 -0.446484,-0.34726 -0.496094,-0.4961 -1.240235,-2.0836 -0.992187,-1.98437 -1.488281,-2.6789 -0.396875,-0.4961 -0.396875,-0.74414 0,-0.29766 0.198438,-0.29766 z" />
      <path
         id="path16"
         style="font-style:normal;font-variant:normal;font-weight:normal;font-stretch:normal;font-size:50.79999924px;font-family:FNMDP;-inkscape-font-specification:FNMDP;stroke-width:0.26458332"
         d="m 64.860715,254.80841 q 0.595312,0 1.289843,0.24805 1.686719,0.49609 2.530078,1.0914 0.744141,0.69454 0.744141,1.88516 0,1.93477 -1.5875,1.93477 -0.396875,0 -0.843359,-0.4961 -0.84336,-0.89297 -2.38125,-3.77031 -0.198438,-0.29766 -0.198438,-0.44648 0.09922,-0.44649 0.446485,-0.44649 z m 0.545703,10.51719 q 0.79375,0 1.686719,0.49609 0.942578,0.54571 0.942578,1.0418 -0.04961,0.19844 -0.644922,0.49609 -0.545703,0.34727 -0.84336,1.38907 0,0 -0.595312,4.8121 l -1.885156,3.86954 q -0.496094,0 -0.992188,-1.14102 -0.396875,-0.79375 -0.396875,-1.53789 0,-0.19844 0.694531,-0.69453 0.496094,-0.29766 0.644922,-0.99219 0.396875,-2.6293 0.694532,-5.55625 0,-0.19844 -0.347266,-0.19844 -2.877344,0.99219 -3.224609,0.99219 -0.347266,0 -0.84336,-0.29766 -0.595312,-0.44648 -0.595312,-0.84335 0,-0.24805 0.248047,-0.29766 0.74414,0.14883 0.942578,0.14883 1.934765,-0.29766 3.91914,-1.33946 0.396875,-0.29765 0.595313,-0.34726 z m 4.564062,4.96094 q 0.446485,0 0.446485,0.34726 0,0.14883 -1.488282,1.53789 -2.530078,2.18281 -4.216796,4.61367 -0.396875,0.64493 -0.644922,0.64493 l 1.289843,-4.61368 q 4.365625,-2.53007 4.613672,-2.53007 z m -10.26914,-2.57969 q 0,0 0,0 z m 15.82539,-12.7 q 1.041797,0 1.835547,0.29765 1.736328,0.59532 1.736328,1.43868 0,1.14101 0.148828,2.38125 0.942578,7.59023 0.942578,10.46757 0,0.84336 -0.248047,1.33946 -0.248046,0.5457 -0.595312,0.5457 -0.396875,0 -0.79375,-0.64492 -0.595313,-0.84336 -0.644922,-1.78594 -0.595312,-4.7625 -0.595312,-4.7625 -0.347266,-3.7207 -0.744141,-5.20898 -0.248047,-1.53789 -1.289844,-2.82774 -0.396875,-0.34726 -0.396875,-0.49609 0,-0.74414 0.644922,-0.74414 z m 0.446485,0 z m 8.582421,-1.33945 q 0.694531,0 2.331641,0.79375 0.74414,0.44648 0.74414,0.99218 0,0.29766 -0.446484,0.59532 -0.496094,0.44648 -0.892969,1.24023 0,0 -0.79375,1.68672 -0.297656,0.59531 -0.992187,0.59531 -0.992188,0 -0.992188,-0.44648 0,-0.0992 0.04961,-0.39688 0.198437,-0.79375 0.297656,-1.38906 0.09922,-0.64492 0.09922,-1.0418 0,-0.34726 -0.446485,-0.34726 -0.79375,0 -2.033984,0.24804 -2.530078,0.44649 -3.323828,0.44649 -0.496094,0 -0.992188,-0.44649 -0.595312,-0.34726 -0.595312,-0.49609 0,-0.29766 0.496094,-0.29766 2.133203,-0.14882 3.621484,-0.49609 1.537891,-0.29766 2.976563,-0.94258 0.595312,-0.29765 0.892968,-0.29765 z m -34.180859,0 z m 26.19375,2.53007 z m 7.491016,3.77032 q 0.595312,0 1.736328,0.5457 0.892968,0.59531 0.892968,0.99219 0,0.29765 -0.297656,0.29765 -1.190625,0 -2.182812,0.19844 -3.075782,0.44648 -3.075782,0.44648 -0.843359,0.14883 -1.289843,0.14883 -1.091407,0 -1.488282,-0.39687 -0.396875,-0.39688 -0.396875,-0.74414 0,-0.4961 0.644922,-0.4961 2.182813,-0.19843 4.067969,-0.74414 1.041797,-0.24804 1.389063,-0.24804 z m -41.423828,2.62929 z m 0,-1.0914 z m 35.321874,0.44648 z m 9.872266,-8.13594 q 1.041797,0 1.835547,0.29766 1.736328,0.59531 1.736328,1.43867 0,1.14102 0.148828,2.38125 0.942578,7.59024 0.942578,10.46758 0,0.84336 -0.248047,1.33945 -0.248047,0.54571 -0.595312,0.54571 -0.396875,0 -0.79375,-0.64493 -0.595313,-0.84336 -0.644922,-1.78593 -0.595313,-4.7625 -0.595313,-4.7625 -0.347265,-3.72071 -0.74414,-5.20899 -0.248047,-1.53789 -1.289844,-2.82773 -0.396875,-0.34727 -0.396875,-0.4961 0,-0.74414 0.644922,-0.74414 z m 0.446484,0 z m 8.185547,-1.33945 q 0.694531,0 2.331641,0.79375 0.74414,0.44648 0.74414,0.99219 0,0.29765 -0.446484,0.59531 -0.496094,0.44648 -0.892969,1.24023 0,0 -0.79375,1.68672 -0.297656,0.59532 -0.992187,0.59532 -0.992188,0 -0.992188,-0.44649 0,-0.0992 0.04961,-0.39687 0.198437,-0.79375 0.297656,-1.38907 0.09922,-0.64492 0.09922,-1.04179 0,-0.34727 -0.446485,-0.34727 -0.79375,0 -2.033984,0.24805 -2.530078,0.44648 -3.323828,0.44648 -0.496094,0 -0.992188,-0.44648 -0.595312,-0.34727 -0.595312,-0.4961 0,-0.29765 0.496094,-0.29765 2.133203,-0.14883 3.621484,-0.4961 1.53789,-0.29765 2.976562,-0.94257 0.595313,-0.29766 0.892969,-0.29766 z m -34.180859,0 z m 26.19375,2.53008 z m 7.491015,3.96875 q 0.595313,0 1.736328,0.5457 0.892969,0.59531 0.892969,0.99219 0,0.29766 -0.297656,0.29766 -1.190625,0 -2.182813,0.19843 -3.075781,0.44649 -3.075781,0.44649 -0.843359,0.14883 -1.289843,0.14883 -1.091407,0 -1.488282,-0.39688 -0.396875,-0.39687 -0.396875,-0.74414 0,-0.49609 0.644922,-0.49609 2.182813,-0.19844 4.067969,-0.74414 1.041797,-0.24805 1.389062,-0.24805 z m -41.423827,2.6293 z m 0,-1.09141 z m 35.321874,0.44648 z m 3.472656,3.02618 q 0.84336,0 2.182813,0.69453 0.892969,0.39687 0.892969,0.99218 0,0.34727 -0.942578,0.54571 -1.091407,0.34726 -4.861719,0.89297 -5.705078,0.74414 -7.441406,0.74414 -2.033985,0 -2.827735,-0.44649 -0.79375,-0.5457 -0.79375,-0.94258 0,-0.29765 1.389063,-0.34726 3.274219,-0.29766 7.193359,-0.99219 2.728516,-0.44648 4.415235,-0.94258 0.595312,-0.19843 0.793749,-0.19843 z m -13.791406,3.12539 q 0,0 0,0 z m 13.245703,2.43086 q 0.248047,0 1.5875,0.49609 1.63711,1.0418 1.63711,1.5875 -0.04961,0.5457 -1.537891,0.59531 -3.819922,0.0992 -8.73125,0.64492 -2.778125,0.29766 -7.342187,1.14102 -0.892969,0.19844 -1.091406,0.19844 -1.041797,0 -2.083594,-0.54571 -1.240234,-0.49609 -1.240234,-0.94257 0,-0.19844 0.942578,-0.39688 9.276953,-1.24023 15.230078,-2.33164 2.083593,-0.44648 2.629296,-0.44648 z m -18.801952,3.91914 q 0,0 0,0 z m 8.483203,-1.38907 q 0.694531,0 2.083593,0.94258 0.992188,0.59531 0.992188,1.28985 0,0.0992 -0.148828,0.24804 -0.248047,0.24805 -1.091407,1.73633 -0.148828,0.24805 -0.148828,0.29766 0,0.29765 0.496094,0.29765 0.396875,0 3.819922,-0.69453 1.736328,-0.29765 2.182812,-0.29765 0.446485,0 2.182813,1.24023 1.438672,1.09141 1.438672,1.73633 0,0.29765 -0.347266,0.64492 -0.496094,0.79375 -0.694531,2.08359 -1.190625,5.95313 -1.240235,5.95313 -0.496093,2.82773 -2.133203,4.51445 -1.53789,1.43867 -2.579687,1.43867 l 0.04961,-4.11758 q 0.446485,0 0.892969,-0.59531 0.694531,-0.99218 1.240234,-3.32383 0.694532,-2.92695 0.694532,-5.65546 0,-0.99219 -0.297657,-1.33946 -0.396875,-0.34726 -1.389062,-0.34726 -1.488281,0 -3.026172,0.5457 -1.785937,0.49609 -2.480469,1.09141 -0.595312,0.49609 -0.892968,0.49609 -0.694532,0 -1.091407,-0.5457 -0.446484,-0.69453 -0.446484,-1.48828 0,-0.0992 0.198437,-0.34727 0.595313,-0.64492 0.992188,-1.83555 0.347266,-0.99218 0.347266,-1.68672 0,-0.44648 -0.09922,-0.94257 -0.248047,-0.69453 -0.248047,-0.89297 0,-0.44649 0.744141,-0.44649 z m 0.446484,16.07344 q 0.297656,0 1.190625,0.29766 2.778125,0.94257 3.224609,0.94257 l -0.04961,4.11758 q -0.694531,0 -1.289844,-0.79375 -1.041797,-1.78593 -3.274219,-4.21679 0,-0.34727 0.198438,-0.34727 z M 50.573215,276.88458 Z m 0,-0.99218 z m 33.139062,-3.81993 z" />
      <path
         id="path18"
         style="font-style:normal;font-variant:normal;font-weight:normal;font-stretch:normal;font-size:50.79999924px;font-family:FNMDP;-inkscape-font-specification:FNMDP;stroke-width:0.26458332"
         d="m 115.66071,254.80841 q 0.59532,0 1.28985,0.24805 1.68672,0.49609 2.53008,1.0914 0.74414,0.69454 0.74414,1.88516 0,1.93477 -1.5875,1.93477 -0.39688,0 -0.84336,-0.4961 -0.84336,-0.89297 -2.38125,-3.77031 -0.19844,-0.29766 -0.19844,-0.44648 0.0992,-0.44649 0.44648,-0.44649 z m 0.54571,10.51719 q 0.79375,0 1.68672,0.49609 0.94257,0.54571 0.94257,1.0418 -0.0496,0.19844 -0.64492,0.49609 -0.5457,0.34727 -0.84336,1.38907 0,0 -0.59531,4.8121 l -1.88516,3.86954 q -0.49609,0 -0.99218,-1.14102 -0.39688,-0.79375 -0.39688,-1.53789 0,-0.19844 0.69453,-0.69453 0.4961,-0.29766 0.64492,-0.99219 0.39688,-2.6293 0.69454,-5.55625 0,-0.19844 -0.34727,-0.19844 -2.87734,0.99219 -3.22461,0.99219 -0.34726,0 -0.84336,-0.29766 -0.59531,-0.44648 -0.59531,-0.84335 0,-0.24805 0.24805,-0.29766 0.74414,0.14883 0.94257,0.14883 1.93477,-0.29766 3.91914,-1.33946 0.39688,-0.29765 0.59532,-0.34726 z m 4.56406,4.96094 q 0.44648,0 0.44648,0.34726 0,0.14883 -1.48828,1.53789 -2.53008,2.18281 -4.21679,4.61367 -0.39688,0.64493 -0.64493,0.64493 l 1.28985,-4.61368 q 4.36562,-2.53007 4.61367,-2.53007 z m -10.26914,-2.57969 q 0,0 0,0 z m 15.82539,-12.7 q 1.0418,0 1.83555,0.29765 1.73632,0.59532 1.73632,1.43868 0,1.14101 0.14883,2.38125 0.94258,7.59023 0.94258,10.46757 0,0.84336 -0.24805,1.33946 -0.24804,0.5457 -0.59531,0.5457 -0.39687,0 -0.79375,-0.64492 -0.59531,-0.84336 -0.64492,-1.78594 -0.59531,-4.7625 -0.59531,-4.7625 -0.34727,-3.7207 -0.74414,-5.20898 -0.24805,-1.53789 -1.28985,-2.82774 -0.39687,-0.34726 -0.39687,-0.49609 0,-0.74414 0.64492,-0.74414 z m 0.44648,0 z m 8.58243,-1.33945 q 0.69453,0 2.33164,0.79375 0.74414,0.44648 0.74414,0.99218 0,0.29766 -0.44649,0.59532 -0.49609,0.44648 -0.89297,1.24023 0,0 -0.79375,1.68672 -0.29765,0.59531 -0.99218,0.59531 -0.99219,0 -0.99219,-0.44648 0,-0.0992 0.0496,-0.39688 0.19844,-0.79375 0.29765,-1.38906 0.0992,-0.64492 0.0992,-1.0418 0,-0.34726 -0.44648,-0.34726 -0.79375,0 -2.03399,0.24804 -2.53007,0.44649 -3.32382,0.44649 -0.4961,0 -0.99219,-0.44649 -0.59531,-0.34726 -0.59531,-0.49609 0,-0.29766 0.49609,-0.29766 2.1332,-0.14882 3.62148,-0.49609 1.53789,-0.29766 2.97657,-0.94258 0.59531,-0.29765 0.89297,-0.29765 z m -34.18086,0 z m 26.19375,2.53007 z m 7.49101,3.77032 q 0.59531,0 1.73633,0.5457 0.89297,0.59531 0.89297,0.99219 0,0.29765 -0.29766,0.29765 -1.19062,0 -2.18281,0.19844 -3.07578,0.44648 -3.07578,0.44648 -0.84336,0.14883 -1.28985,0.14883 -1.0914,0 -1.48828,-0.39687 -0.39687,-0.39688 -0.39687,-0.74414 0,-0.4961 0.64492,-0.4961 2.18281,-0.19843 4.06797,-0.74414 1.0418,-0.24804 1.38906,-0.24804 z m -41.423826,2.62929 z m 0,-1.0914 z m 35.321876,0.44648 z m 9.87226,-8.13594 q 1.0418,0 1.83555,0.29766 1.73633,0.59531 1.73633,1.43867 0,1.14102 0.14883,2.38125 0.94258,7.59024 0.94258,10.46758 0,0.84336 -0.24805,1.33945 -0.24805,0.54571 -0.59531,0.54571 -0.39688,0 -0.79375,-0.64493 -0.59532,-0.84336 -0.64493,-1.78593 -0.59531,-4.7625 -0.59531,-4.7625 -0.34726,-3.72071 -0.74414,-5.20899 -0.24805,-1.53789 -1.28984,-2.82773 -0.39688,-0.34727 -0.39688,-0.4961 0,-0.74414 0.64492,-0.74414 z m 0.44649,0 z m 8.18555,-1.33945 q 0.69453,0 2.33164,0.79375 0.74414,0.44648 0.74414,0.99219 0,0.29765 -0.44649,0.59531 -0.49609,0.44648 -0.89297,1.24023 0,0 -0.79375,1.68672 -0.29765,0.59532 -0.99218,0.59532 -0.99219,0 -0.99219,-0.44649 0,-0.0992 0.0496,-0.39687 0.19844,-0.79375 0.29765,-1.38907 0.0992,-0.64492 0.0992,-1.04179 0,-0.34727 -0.44648,-0.34727 -0.79375,0 -2.03399,0.24805 -2.53007,0.44648 -3.32382,0.44648 -0.4961,0 -0.99219,-0.44648 -0.59531,-0.34727 -0.59531,-0.4961 0,-0.29765 0.49609,-0.29765 2.1332,-0.14883 3.62148,-0.4961 1.53789,-0.29765 2.97657,-0.94257 0.59531,-0.29766 0.89297,-0.29766 z m -34.18086,0 z m 26.19375,2.53008 z m 7.49101,3.96875 q 0.59531,0 1.73633,0.5457 0.89297,0.59531 0.89297,0.99219 0,0.29766 -0.29766,0.29766 -1.19062,0 -2.18281,0.19843 -3.07578,0.44649 -3.07578,0.44649 -0.84336,0.14883 -1.28985,0.14883 -1.0914,0 -1.48828,-0.39688 -0.39687,-0.39687 -0.39687,-0.74414 0,-0.49609 0.64492,-0.49609 2.18281,-0.19844 4.06797,-0.74414 1.0418,-0.24805 1.38906,-0.24805 z m -41.42383,2.6293 z m 0,-1.09141 z m 35.32188,0.44648 z m 3.47265,3.02618 q 0.84336,0 2.18282,0.69453 0.89297,0.39687 0.89297,0.99218 0,0.34727 -0.94258,0.54571 -1.09141,0.34726 -4.86172,0.89297 -5.70508,0.74414 -7.44141,0.74414 -2.03398,0 -2.82773,-0.44649 -0.79375,-0.5457 -0.79375,-0.94258 0,-0.29765 1.38906,-0.34726 3.27422,-0.29766 7.19336,-0.99219 2.72852,-0.44648 4.41523,-0.94258 0.59532,-0.19843 0.79375,-0.19843 z m -13.7914,3.12539 q 0,0 0,0 z m 13.2457,2.43086 q 0.24805,0 1.5875,0.49609 1.63711,1.0418 1.63711,1.5875 -0.0496,0.5457 -1.53789,0.59531 -3.81992,0.0992 -8.73125,0.64492 -2.77812,0.29766 -7.34219,1.14102 -0.89297,0.19844 -1.0914,0.19844 -1.0418,0 -2.0836,-0.54571 -1.24023,-0.49609 -1.24023,-0.94257 0,-0.19844 0.94258,-0.39688 9.27695,-1.24023 15.23007,-2.33164 2.0836,-0.44648 2.6293,-0.44648 z m -18.80195,3.91914 q 0,0 0,0 z m 8.4832,-1.38907 q 0.69453,0 2.0836,0.94258 0.99218,0.59531 0.99218,1.28985 0,0.0992 -0.14883,0.24804 -0.24804,0.24805 -1.0914,1.73633 -0.14883,0.24805 -0.14883,0.29766 0,0.29765 0.49609,0.29765 0.39688,0 3.81993,-0.69453 1.73632,-0.29765 2.18281,-0.29765 0.44648,0 2.18281,1.24023 1.43867,1.09141 1.43867,1.73633 0,0.29765 -0.34726,0.64492 -0.4961,0.79375 -0.69453,2.08359 -1.19063,5.95313 -1.24024,5.95313 -0.49609,2.82773 -2.1332,4.51445 -1.53789,1.43867 -2.57969,1.43867 l 0.0496,-4.11758 q 0.44648,0 0.89297,-0.59531 0.69453,-0.99218 1.24023,-3.32383 0.69453,-2.92695 0.69453,-5.65546 0,-0.99219 -0.29765,-1.33946 -0.39688,-0.34726 -1.38906,-0.34726 -1.48829,0 -3.02618,0.5457 -1.78593,0.49609 -2.48046,1.09141 -0.59532,0.49609 -0.89297,0.49609 -0.69453,0 -1.09141,-0.5457 -0.44648,-0.69453 -0.44648,-1.48828 0,-0.0992 0.19843,-0.34727 0.59532,-0.64492 0.99219,-1.83555 0.34727,-0.99218 0.34727,-1.68672 0,-0.44648 -0.0992,-0.94257 -0.24805,-0.69453 -0.24805,-0.89297 0,-0.44649 0.74414,-0.44649 z m 0.44649,16.07344 q 0.29765,0 1.19062,0.29766 2.77813,0.94257 3.22461,0.94257 l -0.0496,4.11758 q -0.69453,0 -1.28984,-0.79375 -1.0418,-1.78593 -3.27422,-4.21679 0,-0.34727 0.19844,-0.34727 z m -32.34532,-11.26133 z m 0,-0.99218 z m 33.13907,-3.81993 z" />
      <path
         id="path20"
         style="font-style:normal;font-variant:normal;font-weight:normal;font-stretch:normal;font-size:50.79999924px;font-family:FNMDP;-inkscape-font-specification:FNMDP;stroke-width:0.26458332"
         d="m 181.7404,265.72247 q 1.78593,0 2.97656,1.19063 0.99219,1.19062 0.99219,2.97656 0,2.77813 -1.38907,5.15938 -1.38906,1.98437 -4.16718,3.57187 l -0.79375,-0.94258 q 3.57187,-2.53008 3.57187,-5.20898 -0.0992,-0.79375 -1.53789,-1.0418 -2.43086,-0.5457 -2.43086,-2.72851 0,-1.09141 0.79375,-2.03399 0.79375,-0.94258 1.98438,-0.94258 z" />
      <path
         id="path22"
         style="font-style:normal;font-variant:normal;font-weight:normal;font-stretch:normal;font-size:50.79999924px;font-family:FNMDP;-inkscape-font-specification:FNMDP;stroke-width:0.26458332"
         d="m 232.5404,265.72247 q 1.78594,0 2.97656,1.19063 0.99219,1.19062 0.99219,2.97656 0,2.77813 -1.38906,5.15938 -1.38907,1.98437 -4.16719,3.57187 l -0.79375,-0.94258 q 3.57187,-2.53008 3.57187,-5.20898 -0.0992,-0.79375 -1.53789,-1.0418 -2.43086,-0.5457 -2.43086,-2.72851 0,-1.09141 0.79375,-2.03399 0.79375,-0.94258 1.98438,-0.94258 z" />
      <path
         id="path24"
         style="font-style:normal;font-variant:normal;font-weight:normal;font-stretch:normal;font-size:50.79999924px;font-family:FNMDP;-inkscape-font-specification:FNMDP;stroke-width:0.26458332"
         d="m 283.3404,265.72247 q 1.78594,0 2.97657,1.19063 0.99218,1.19062 0.99218,2.97656 0,2.77813 -1.38906,5.15938 -1.38906,1.98437 -4.16719,3.57187 l -0.79375,-0.94258 q 3.57188,-2.53008 3.57188,-5.20898 -0.0992,-0.79375 -1.53789,-1.0418 -2.43086,-0.5457 -2.43086,-2.72851 0,-1.09141 0.79375,-2.03399 0.79375,-0.94258 1.98437,-0.94258 z" />
    </g>
  </g>
</svg>
